<svg viewBox="0 0 484 68" fill="none" xmlns="http://www.w3.org/2000/svg"><path d="M472.111.193h11.281L469.585 68H458.26L472.111.193z" fill="#D62F3A"></path><path d="M432.511 22.232l-1.004 5.247h18.569l-2.132 10.879h-18.632l-1.129 5.887h20.95l-2.357 11.39h-34.828l9.143-44.793h34.82l-2.259 11.39h-21.141z" fill="#fff"></path><path fill-rule="evenodd" clip-rule="evenodd" d="M407.119 14.745c-3.221-2.602-7.758-3.903-13.614-3.903h-19.509l-2.328 11.635 17.066.011h2.701c3.681 0 5.521 1.515 5.521 4.543 0 1.877-.565 3.35-1.694 4.416-1.129 1.024-2.718 1.536-4.768 1.536h-6.085l.001-.003h-14.844l-4.533 22.655h14.905l2.213-11.006h7.59c4.434 0 8.323-.79 11.669-2.368 3.387-1.578 5.98-3.797 7.779-6.655 1.84-2.858 2.76-6.164 2.76-9.918 0-4.693-1.61-8.34-4.83-10.943z" fill="#fff"></path><path d="M346.385 39.382l-3.137 16.253h-14.805l3.199-16.445-10.978-28.348h14.868l5.959 15.486 12.233-15.486h14.868l-22.207 28.54zM287.009 22.502h-12.806l2.311-11.66h40.353l-2.311 11.66H301.75l-6.7 33.133h-14.9l6.859-33.133zM225.261 55.635c-4.279 0-8.039-.795-11.278-2.386-3.2-1.632-5.679-3.896-7.439-6.793-1.72-2.896-2.58-6.221-2.58-9.974 0-4.977 1.12-9.404 3.36-13.28 2.279-3.916 5.419-6.955 9.418-9.117 4.04-2.162 8.599-3.243 13.678-3.243 4.279 0 8.019.816 11.218 2.447 3.24 1.591 5.719 3.835 7.439 6.732 1.76 2.896 2.64 6.221 2.64 9.974 0 4.977-1.14 9.424-3.42 13.34-2.239 3.876-5.379 6.895-9.418 9.057-4 2.162-8.539 3.243-13.618 3.243zm1.2-11.688c2.239 0 4.179-.591 5.819-1.774 1.68-1.183 2.959-2.774 3.839-4.773.88-2 1.32-4.182 1.32-6.548 0-2.53-.74-4.549-2.22-6.058-1.439-1.51-3.439-2.264-5.999-2.264-2.239 0-4.199.591-5.879 1.774-1.639 1.183-2.899 2.774-3.779 4.773-.88 2-1.32 4.182-1.32 6.548 0 2.53.72 4.549 2.16 6.058 1.48 1.51 3.499 2.264 6.059 2.264z" fill="#fff"></path><path fill-rule="evenodd" clip-rule="evenodd" d="M197.202 35.99c2.092-2.986 3.137-6.463 3.137-10.43 0-4.65-1.61-8.255-4.83-10.815-3.179-2.602-7.654-3.903-13.425-3.903h-19.375l-2.382 11.714 14.539-.049.004-.019h4.955c3.681 0 5.521 1.515 5.521 4.543 0 1.878-.565 3.35-1.694 4.416-1.129 1.024-2.718 1.536-4.768 1.536h-6.061l-14.607-.04-4.613 22.692h14.805l2.196-11.262h3.638l6.211 11.262h15.369l-7.339-13.054c3.764-1.45 6.67-3.647 8.719-6.59z" fill="#fff"></path><path d="M127.413 22.552h-12.86l2.321-11.71h40.525l-2.408 11.71h-12.773l-6.75 33.083h-14.803l6.748-33.083zM95.002 10.842h14.787l-8.772 44.736H86.231l8.771-44.736z" fill="#fff"></path><path fill-rule="evenodd" clip-rule="evenodd" d="M22.448 0H.392l16.61 27.836-7.839 40.067h64.74L88.043 0H22.447z" fill="#D62F3A"></path><path d="M73.334 10.84L64.55 55.635H52.38l-12.61-20.86-4.077 20.86H21.265l8.783-44.793h12.17l12.61 20.86 4.077-20.86h14.428z" fill="#fff"></path></svg>